<?xml version="1.0" encoding="UTF-8" standalone="no"?>
<svg
   version="1.0"
   width="200"
   height="200"
   viewBox="0 0 786.000000 669.000000"
   preserveAspectRatio="xMidYMid meet"
   id="svg1"
   sodipodi:docname="logo.svg"
   inkscape:version="1.4 (86a8ad7, 2024-10-11)"
   inkscape:export-filename="logo.png"
   inkscape:export-xdpi="96"
   inkscape:export-ydpi="96"
   xmlns:inkscape="http://www.inkscape.org/namespaces/inkscape"
   xmlns:sodipodi="http://sodipodi.sourceforge.net/DTD/sodipodi-0.dtd"
   xmlns="http://www.w3.org/2000/svg"
   xmlns:svg="http://www.w3.org/2000/svg">
  <defs
     id="defs1" />
  <sodipodi:namedview
     id="namedview1"
     pagecolor="#ffffff"
     bordercolor="#000000"
     borderopacity="0.25"
     inkscape:showpageshadow="2"
     inkscape:pageopacity="0.0"
     inkscape:pagecheckerboard="0"
     inkscape:deskcolor="#d1d1d1"
     showgrid="false"
     inkscape:zoom="128"
     inkscape:cx="54.285156"
     inkscape:cy="66.199219"
     inkscape:window-width="1686"
     inkscape:window-height="1211"
     inkscape:window-x="3299"
     inkscape:window-y="4"
     inkscape:window-maximized="0"
     inkscape:current-layer="svg1" />
  <!-- Folder -->
  <g
     transform="translate(0.000000,669.000000) scale(0.100000,-0.100000)"
     fill="#FFA500"
     stroke="none"
     id="g1"
     style="stroke:#000000;stroke-opacity:1;fill:#000000;fill-opacity:1">
    <path
       d="M1515 6310 c-320 -7 -334 -11 -470 -102 -75 -50 -119 -95 -171 -178     -61 -98 -58 -10 -61 -1690 -2 -844 1 -1866 6 -2270 8 -703 10 -737 29 -792 60     -167 165 -270 370 -365 173 -79 135 -74 662 -85 638 -12 4253 -4 4379 11 125     14 184 32 289 89 110 59 234 179 276 265 45 95 96 354 166 847 30 213 114 763     251 1655 38 253 82 534 95 625 32 210 36 364 10 440 -59 175 -179 296 -357     361 l-56 21 -6 116 c-4 64 -14 146 -22 181 -45 186 -174 333 -361 411 l-77 32     -1503 8 -1504 8 -151 143 c-245 234 -289 257 -529 270 -174 9 -839 9 -1265 -1z     m1353 -329 c31 -16 101 -67 156 -113 181 -153 251 -210 306 -247 l55 -38 370     -7 c204 -3 750 -6 1215 -7 465 0 976 -4 1136 -8 289 -7 291 -7 335 -33 101     -60 154 -145 165 -265 l7 -70 -2114 -6 c-2085 -6 -2115 -7 -2212 -27 -189 -40     -355 -118 -472 -223 -64 -57 -145 -174 -174 -251 -22 -58 -53 -244 -151 -881     -32 -214 -79 -514 -104 -665 -45 -272 -150 -974 -181 -1205 -23 -175 -26 -190     -36 -173 -12 21 -19 557 -29 2254 -6 978 -14 1588 -21 1668 -11 121 -10 127     11 168 33 64 77 106 134 124 71 24 265 30 959 32 l588 2 57 -29z m3990 -1152     c74 -42 127 -101 153 -167 33 -88 32 -101 -115 -1057 -42 -269 -98 -643 -126     -830 -112 -756 -132 -888 -165 -1080 -18 -110 -45 -237 -60 -283 -22 -71 -34     -91 -86 -147 -77 -81 -120 -102 -239 -114 -52 -6 -512 -13 -1022 -17 l-928 -7     0 500 0 499 54 17 c135 43 230 126 292 254 l39 82 285 0 285 1 33 -64 c39 -75     122 -163 185 -194 94 -47 218 -46 324 3 62 28 152 110 187 169 52 89 59 254     16 370 -29 75 -97 148 -173 185 -199 97 -452 22 -537 -160 l-23 -49 -136 1     c-75 1 -194 4 -265 8 l-128 6 -19 59 -18 60 159 165 c87 91 256 263 374 381     l216 215 32 -20 c28 -17 51 -20 148 -20 101 0 121 3 165 25 68 33 145 113 179     185 95 200 30 428 -147 515 -123 60 -265 62 -379 4 -67 -34 -153 -121 -180     -181 -27 -61 -35 -182 -18 -265 l13 -60 -219 -211 c-120 -115 -292 -283 -381     -374 l-162 -164 -33 17 c-18 10 -62 28 -98 40 l-65 23 -3 244 -2 245 24 6 c44     11 131 101 172 178 38 72 39 75 38 179 0 126 -18 172 -98 253 -103 105 -235     140 -374 97 -173 -52 -272 -181 -272 -355 0 -155 68 -284 182 -342 l47 -24 3     -232 c2 -128 0 -240 -4 -249 -4 -8 -26 -21 -50 -28 -24 -7 -61 -23 -83 -36     l-41 -23 -356 349 c-196 192 -366 364 -377 382 -18 29 -18 39 -8 114 25 195     -46 329 -221 415 -165 81 -392 28 -490 -114 -77 -112 -81 -282 -11 -420 30     -59 106 -136 162 -164 88 -45 164 -47 332 -7 16 3 101 -77 391 -369 204 -205     375 -383 378 -395 10 -30 -33 -118 -56 -117 -10 0 -130 1 -266 2 l-248 2 -18     41 c-24 54 -110 140 -169 168 -148 71 -339 42 -454 -69 -79 -76 -108 -168     -101 -321 5 -114 24 -156 112 -247 76 -80 129 -111 203 -122 70 -9 181 3 229     26 59 28 127 98 177 183 l48 81 82 0 c45 0 173 -3 285 -7 l203 -6 50 -98 c61     -120 128 -187 219 -220 33 -12 64 -27 68 -33 5 -6 12 -231 15 -500 l6 -489     -1196 6 -1197 6 -55 38 c-79 55 -96 89 -94 188 1 44 31 274 68 510 36 237 82     538 101 670 19 132 45 303 59 380 13 77 36 217 49 310 14 94 48 319 76 500 27     182 63 438 80 570 34 269 45 304 126 394 96 107 196 141 439 151 94 4 1111 7     2260 8 l2090 2 53 -31z m-2583 -1963 c195 -92 179 -366 -27 -472 -97 -50 -218     -26 -293 58 -87 96 -110 215 -56 299 30 48 105 109 156 127 57 20 165 14 220     -12z"
       id="path1"
       style="stroke:#000000;stroke-opacity:1;fill:#000000;fill-opacity:1" />
  </g>
  <path
     style="fill:#000000;stroke-width:0.17138;stroke:#000000;stroke-opacity:1;fill-opacity:1"
     d="m 54.927164,163.99816 c -17.891499,-0.15302 -19.372809,-0.24904 -22.193659,-1.43857 -4.957862,-2.09068 -8.032955,-4.3845 -9.772541,-7.28967 -1.190431,-1.98806 -1.544551,-3.20687 -1.716105,-5.90652 -0.504117,-7.93298 -0.661325,-106.530761 -0.179948,-112.859544 0.218716,-2.875517 0.415587,-3.534895 1.564221,-5.239027 1.257497,-1.865642 2.384898,-2.943181 4.563381,-4.361553 2.189519,-1.425557 3.339867,-1.824699 5.962002,-2.068664 2.891402,-0.269017 34.723122,-0.415064 38.095867,-0.174786 5.429304,0.386788 6.647402,0.991387 11.894367,5.903736 1.425784,1.334857 3.109061,2.903873 3.740615,3.486703 l 1.148283,1.059691 38.202543,0.202579 38.20254,0.202578 1.61662,0.667558 c 3.99844,1.651091 6.75089,4.138343 8.50312,7.68384 0.81669,1.652492 1.22209,3.313868 1.45471,5.961508 0.10562,1.20213 0.2438,2.716274 0.30708,3.364764 l 0.11504,1.179073 1.19979,0.460086 c 4.64571,1.781506 7.69116,4.781828 9.05547,8.921271 0.56344,1.70955 0.6945,3.52477 0.46402,6.426736 -0.21234,2.673597 -0.39512,3.919425 -4.87783,33.247641 -1.74327,11.40531 -3.63927,23.93745 -4.21335,27.84919 -2.29731,15.65372 -3.28579,20.72804 -4.5646,23.43201 -1.14332,2.41749 -4.70094,5.63676 -8.00745,7.24592 -2.06987,1.00733 -3.92375,1.48245 -6.70815,1.71918 -1.22298,0.10399 -16.15775,0.24027 -36.84661,0.33624 -37.797123,0.17533 -45.26506,0.174 -67.009426,-0.012 z m 46.871656,-10.91333 c -0.001,-5.71545 -0.34848,-21.03558 -0.48885,-21.56043 -0.11298,-0.42245 -0.35191,-0.58874 -1.622489,-1.12924 -2.785863,-1.18508 -4.071805,-2.51965 -5.940643,-6.16527 l -1.020733,-1.9912 -4.932033,-0.11086 c -2.712619,-0.061 -5.988494,-0.15791 -7.279726,-0.21541 l -2.347691,-0.10455 -0.480072,0.80977 c -2.363065,3.98598 -4.142763,5.76968 -6.335659,6.34991 -2.592069,0.68584 -5.48205,0.46744 -7.250727,-0.54796 -1.202041,-0.69008 -4.117739,-3.73968 -4.674632,-4.88931 -0.605351,-1.24966 -0.878173,-3.18106 -0.757706,-5.36404 0.162655,-2.94747 0.893855,-4.6543 2.716974,-6.34218 3.301321,-3.05645 8.646934,-3.49749 12.256823,-1.01127 1.261228,0.86865 2.705341,2.50043 3.27079,3.69585 l 0.465446,0.98401 6.696776,0.009 6.696775,0.009 0.356207,-0.3856 c 0.475589,-0.51484 0.903198,-1.58524 0.903198,-2.2609 0,-0.47408 -0.373578,-0.93985 -2.766716,-3.44951 C 84.99938,104.94146 77.811369,97.725775 75.160055,95.25547 72.442356,92.723313 73.087659,92.930598 69.676418,93.494005 67.316655,93.88375 65.906151,93.723728 64.16914,92.869207 62.457373,92.027104 60.695657,90.201813 59.826749,88.370108 56.442744,81.236447 60.55793,74.337186 68.209083,74.316821 c 2.87793,-0.0077 5.228962,0.992562 7.378758,3.139217 2.203408,2.20019 2.669659,3.648108 2.499996,7.76364 -0.07911,1.919056 -0.05395,2.82752 0.08567,3.093163 0.418893,0.797008 2.463505,2.902917 10.486295,10.800686 l 8.303086,8.173693 1.689937,-0.78508 c 0.929467,-0.43179 1.959855,-0.91473 2.289765,-1.0732 l 0.59983,-0.28811 0.045,-6.201049 0.045,-6.201047 -1.07325,-0.56288 c -3.000991,-1.573907 -4.746911,-4.776022 -4.754931,-8.720824 -0.0092,-4.505974 2.728687,-7.912082 7.299421,-9.08108 2.33254,-0.596564 4.28178,-0.381678 6.452,0.711277 1.43634,0.723364 3.66245,2.954492 4.33944,4.34922 0.46902,0.966257 0.50286,1.179915 0.56117,3.542367 0.0716,2.901568 -0.0796,3.569261 -1.20195,5.305693 -1.37829,2.132472 -3.42961,4.091101 -4.28473,4.091101 -0.29987,0 -0.31486,0.301 -0.31486,6.322709 0,5.861823 0.0219,6.331423 0.29991,6.442283 0.16496,0.0658 0.95545,0.35268 1.75665,0.63759 0.8012,0.28491 1.81384,0.69871 2.25031,0.91956 l 0.79359,0.40154 6.26084,-6.20503 c 3.44347,-3.412766 7.80676,-7.670323 9.69622,-9.46124 3.13601,-2.972465 3.43063,-3.301015 3.38103,-3.770352 -0.0299,-0.282776 -0.1571,-1.234121 -0.28269,-2.114101 -0.27039,-1.894492 -0.038,-4.369993 0.53084,-5.656067 0.79988,-1.808263 3.06344,-4.025557 5.02746,-4.924719 3.45178,-1.580275 8.13615,-0.899707 10.89784,1.58329 1.93033,1.735536 2.91842,4.059536 2.91842,6.864163 0,1.99478 -0.28962,3.246432 -1.15949,5.010908 -0.85519,1.734723 -2.75386,3.662813 -4.40709,4.47539 l -1.19641,0.588043 h -2.9167 c -2.89154,0 -2.92411,-0.0042 -3.77361,-0.488187 l -0.8569,-0.488188 -8.806,8.88579 c -4.8433,4.88718 -9.14485,9.28211 -9.55898,9.76651 l -0.75297,0.88072 0.48328,1.51859 0.48329,1.5186 2.22051,0.10941 c 1.22128,0.0602 4.27178,0.16605 6.77891,0.23527 l 4.5584,0.12586 0.51718,-1.09217 c 1.59464,-3.36748 4.87903,-5.31306 8.9607,-5.30808 3.55122,0.004 6.40771,1.44774 8.21187,4.1495 0.96474,1.44469 1.39027,2.9215 1.50061,5.2078 0.10205,2.11453 -0.15673,3.73304 -0.82376,5.15208 -0.5151,1.09582 -2.63904,3.3131 -3.99237,4.1678 -2.77053,1.74974 -6.26679,2.0114 -9.00946,0.67426 -1.55423,-0.75773 -3.60182,-2.85212 -4.62725,-4.73299 -0.42416,-0.77801 -0.84833,-1.51272 -0.94259,-1.63268 -0.13547,-0.17241 -1.70328,-0.20381 -7.48275,-0.14984 l -7.31137,0.0683 -0.45506,1.05431 c -1.57753,3.65487 -4.24599,6.18293 -7.77449,7.36543 -0.69215,0.23196 -1.32891,0.49218 -1.415,0.57828 -0.0924,0.0924 -0.13854,5.31139 -0.11258,12.74325 l 0.044,12.58671 15.59554,-0.0449 c 8.57755,-0.0247 19.77131,-0.12086 24.87501,-0.21369 10.00575,-0.182 11.14682,-0.28218 12.88141,-1.13083 0.96036,-0.46986 2.99488,-2.36757 3.71196,-3.46235 1.34323,-2.05072 2.06093,-5.84543 5.66229,-29.9383 1.18353,-7.91774 3.10957,-20.68123 4.28009,-28.363324 3.00343,-19.711533 3.22317,-21.326247 3.24263,-23.828825 0.0167,-2.148176 0.0164,-2.149977 -0.61928,-3.437976 -0.75985,-1.539619 -2.03437,-2.828982 -3.87431,-3.919407 l -1.25408,-0.743223 -54.44429,0.119398 c -31.186614,0.06839 -55.589732,0.18958 -57.125684,0.28369 -5.929787,0.363326 -8.312425,1.332831 -10.763518,4.379717 -1.621447,2.015573 -1.845106,2.84727 -2.921951,10.865563 -1.194193,8.892082 -3.948003,27.345347 -5.140623,34.447297 -0.277005,1.64953 -0.927716,5.85262 -1.446028,9.34019 -0.518312,3.48758 -1.411616,9.42588 -1.985122,13.19623 -1.466227,9.6393 -2.053638,13.95449 -2.17145,15.95172 -0.176345,2.98948 0.262558,3.94225 2.529661,5.49136 l 1.223876,0.83627 17.162425,0.0873 c 9.439333,0.048 23.158569,0.10587 30.48719,0.12853 l 13.324764,0.0412 z M 31.273128,132.20766 c 1.257722,-8.77594 2.764733,-18.75248 3.946124,-26.12368 0.430548,-2.68638 1.630432,-10.359901 2.666409,-17.052275 2.334329,-15.079678 3.335061,-21.03127 3.784426,-22.506877 0.651834,-2.140468 2.610833,-5.108568 4.556715,-6.903923 2.733333,-2.521894 7.023731,-4.591034 11.699505,-5.64235 1.44407,-0.32469 2.432051,-0.38243 8.74036,-0.510802 3.911739,-0.0796 28.387234,-0.200656 54.389993,-0.269006 l 47.27773,-0.124272 -0.11848,-1.358286 c -0.2417,-2.7707 -0.92776,-4.401493 -2.51566,-5.979742 -0.53371,-0.530473 -1.40625,-1.177741 -1.93896,-1.438375 -0.85408,-0.417863 -1.25621,-0.490562 -3.40178,-0.615003 -1.33826,-0.07762 -15.65942,-0.215914 -31.82481,-0.307323 C 112.36932,43.284336 96.229947,43.156272 92.669424,43.09116 L 86.195746,42.972776 84.957342,42.109285 C 83.55665,41.132637 81.325642,39.354917 78.06341,36.616038 75.469803,34.438516 73.820704,33.240764 72.47159,32.554657 L 71.50702,32.064114 53.876903,32.22536 c -9.696564,0.08868 -18.362764,0.238376 -19.258223,0.332646 -0.895458,0.09427 -2.041126,0.30112 -2.54593,0.459666 -1.193287,0.374782 -2.533281,1.595169 -3.270751,2.978805 l -0.561285,1.053076 0.188584,5.082764 c 0.103722,2.79552 0.265613,14.337263 0.35976,25.648317 0.09415,11.311054 0.254158,30.62982 0.355581,42.930596 0.223702,27.13107 0.323947,30.57685 0.861597,29.61613 0.07631,-0.13637 0.646415,-3.79023 1.266892,-8.1197 z m 76.762062,-7.92309 c 4.80894,-2.25038 5.79962,-8.84408 1.74206,-11.59482 -1.3059,-0.8853 -2.533,-1.17055 -4.69963,-1.09247 -2.12987,0.0768 -2.82714,0.3727 -4.60095,1.95276 -1.487914,1.32539 -2.019986,2.45307 -2.016339,4.27344 0.0024,1.21636 0.07201,1.51604 0.616682,2.65638 1.847087,3.8671 5.504957,5.42067 8.958177,3.80471 z"
     id="path2"
     transform="matrix(3.93,0,0,3.93,0,-58.5)" />
  <path
     style="fill:#000000;stroke-width:0.00757398;stroke:#000000;stroke-opacity:1;fill-opacity:1"
     d="m 40.87352,69.792333 c 0.378955,-2.064827 0.611518,-3.115923 0.83184,-3.759596 0.220761,-0.644959 0.685141,-1.572655 1.232814,-2.462807 0.750925,-1.220503 1.629276,-2.394043 2.489712,-3.326433 0.181955,-0.197172 0.613911,-0.621277 0.807476,-0.7928 0.80104,-0.709825 1.632389,-1.333902 2.590301,-1.944488 l 0.196923,-0.125521 0.109823,2e-5 0.109823,2e-5 -0.02272,0.0141 c -0.758091,0.470536 -1.177344,0.754158 -1.721184,1.164368 -0.88052,0.664164 -1.588835,1.312526 -2.278514,2.085659 -1.656627,1.857084 -3.10561,4.280666 -3.588632,6.002379 -0.149703,0.53361 -0.387571,1.680576 -0.634194,3.057994 l -0.02543,0.142013 h -0.05406 -0.05406 z"
     id="path3"
     transform="matrix(3.93,0,0,3.93,0,-58.5)" />
  <path
     style="fill:#000000;stroke-width:0.015148;stroke:#000000;stroke-opacity:1;fill-opacity:1"
     d="m 47.806962,77.090648 c 0,-0.05979 0.313128,-2.340044 0.470479,-3.426118 0.567169,-3.914732 0.915781,-5.264916 1.675924,-6.4909 0.3062,-0.493851 0.915232,-1.269471 1.470876,-1.873206 2.057575,-2.235657 4.320532,-3.12498 8.916771,-3.504216 0.917197,-0.07568 1.750438,-0.117363 2.220064,-0.111065 0.09266,0.0012 0.04142,0.0063 -0.143906,0.01416 -5.278434,0.224292 -7.806928,0.901491 -9.906079,2.653114 -0.296798,0.247662 -0.682621,0.614346 -0.972113,0.923892 -1.30656,1.397071 -1.852378,2.232771 -2.263172,3.465134 -0.386527,1.159566 -0.658554,2.679099 -1.113187,6.218238 -0.05458,0.4249 -0.139892,1.08105 -0.189578,1.458109 -0.04969,0.37706 -0.09034,0.688919 -0.09034,0.69302 0,0.0041 -0.01704,0.0075 -0.03787,0.0075 -0.02655,0 -0.03787,-0.0083 -0.03787,-0.02762 z"
     id="path4"
     transform="matrix(3.93,0,0,3.93,0,-58.5)" />
  <path
     style="fill:#000000;stroke-width:0.00390625"
     d=""
     id="path5"
     transform="matrix(3.93,0,0,3.93,0,-58.5)" />
  <path
     style="fill:#000000;stroke-width:0.00390625"
     d=""
     id="path6"
     transform="matrix(3.93,0,0,3.93,0,-58.5)" />
  <path
     style="fill:#000000;stroke-width:0.00390625"
     d=""
     id="path7"
     transform="matrix(3.93,0,0,3.93,0,-58.5)" />
  <path
     style="fill:#000000;stroke-width:0.00390625"
     d=""
     id="path8"
     transform="matrix(3.93,0,0,3.93,0,-58.5)" />
  <path
     style="fill:#000000;stroke-width:0.00390625"
     d=""
     id="path9"
     transform="matrix(3.93,0,0,3.93,0,-58.5)" />
</svg>
